<svg width="18" height="19" viewBox="0 0 18 19" fill="none" xmlns="http://www.w3.org/2000/svg">
<path d="M18.0001 8.32115V16.9893C17.9999 17.2611 17.9263 17.5278 17.7869 17.7613C17.6475 17.9947 17.4477 18.1861 17.2085 18.3152C16.9917 18.4325 16.7486 18.4924 16.5022 18.4892H11.9968C11.7979 18.4892 11.6071 18.4102 11.4665 18.2695C11.3258 18.1289 11.2468 17.9381 11.2468 17.7392V13.2385C11.2468 13.0396 11.1678 12.8488 11.0271 12.7082C10.8865 12.5675 10.6957 12.4885 10.4968 12.4885H7.49682C7.29791 12.4885 7.10714 12.5675 6.96649 12.7082C6.82584 12.8488 6.74682 13.0396 6.74682 13.2385V17.7392C6.74682 17.9381 6.6678 18.1289 6.52715 18.2695C6.3865 18.4102 6.19573 18.4892 5.99682 18.4892H1.50029C1.28764 18.4897 1.07732 18.4448 0.883446 18.3575C0.689567 18.2701 0.516599 18.1423 0.376132 17.9826C0.129551 17.6975 -0.00419596 17.3319 0.000100382 16.955V8.32105C0.000263818 8.11207 0.0440112 7.90541 0.128549 7.71429C0.213086 7.52316 0.336555 7.35177 0.491069 7.21105L7.99041 0.392336C8.26588 0.140011 8.62589 3.47133e-05 8.99945 6.45567e-09C9.37302 -3.47004e-05 9.73305 0.139875 10.0086 0.392148L17.5092 7.21115C17.6637 7.35189 17.7871 7.52329 17.8717 7.71441C17.9562 7.90553 17.9999 8.11217 18.0001 8.32115Z" fill="#888B97"/>
</svg>
