<svg width="24" height="24" viewBox="0 0 24 24" fill="none" xmlns="http://www.w3.org/2000/svg">
<path d="M18.9982 9.99335C18.9987 9.76166 18.9175 9.53713 18.7687 9.35872C18.6849 9.25832 18.5821 9.17532 18.466 9.11448C18.3499 9.05364 18.2229 9.01616 18.0922 9.00419C17.9615 8.99221 17.8297 9.00598 17.7044 9.0447C17.5791 9.08341 17.4626 9.14632 17.3618 9.22982L12.0137 13.6722L6.65557 9.38847C6.5535 9.3061 6.43607 9.24459 6.31001 9.20747C6.18395 9.17036 6.05175 9.15837 5.92101 9.17219C5.79027 9.18601 5.66357 9.22537 5.54819 9.28802C5.43281 9.35066 5.33103 9.43535 5.24869 9.53721C5.15785 9.63981 5.08934 9.75996 5.04744 9.89012C5.00554 10.0203 4.99117 10.1576 5.00522 10.2936C5.01928 10.4295 5.06145 10.5611 5.12911 10.6801C5.19676 10.7991 5.28842 10.9029 5.39835 10.985L11.3851 15.7744C11.5636 15.9203 11.7876 16 12.0187 16C12.2498 16 12.4737 15.9203 12.6523 15.7744L18.639 10.8164C18.7597 10.7169 18.8552 10.5905 18.9176 10.4475C18.98 10.3045 19.0076 10.1489 18.9982 9.99335Z" fill="black"/>
</svg>
